<svg xmlns="http://www.w3.org/2000/svg" viewBox="0 0 200 200">
  <defs>
    <linearGradient id="cnbg" x1="0%" y1="0%" x2="100%" y2="100%">
      <stop offset="0%" style="stop-color:#1a1a2e"/>
      <stop offset="100%" style="stop-color:#16213e"/>
    </linearGradient>
  </defs>
  <rect width="200" height="200" fill="url(#cnbg)"/>
  <!-- Stick figure (pose) -->
  <g stroke="#00ff88" stroke-width="3" fill="none" stroke-linecap="round">
    <!-- Head -->
    <circle cx="100" cy="45" r="15"/>
    <!-- Spine -->
    <line x1="100" y1="60" x2="100" y2="110"/>
    <!-- Arms -->
    <line x1="100" y1="75" x2="65" y2="95"/>
    <line x1="100" y1="75" x2="135" y2="85"/>
    <!-- Legs -->
    <line x1="100" y1="110" x2="75" y2="155"/>
    <line x1="100" y1="110" x2="125" y2="150"/>
    <!-- Joints -->
    <circle cx="100" cy="75" r="4" fill="#00ff88"/>
    <circle cx="65" cy="95" r="3" fill="#00ff88"/>
    <circle cx="135" cy="85" r="3" fill="#00ff88"/>
    <circle cx="100" cy="110" r="4" fill="#00ff88"/>
    <circle cx="75" cy="155" r="3" fill="#00ff88"/>
    <circle cx="125" cy="150" r="3" fill="#00ff88"/>
  </g>
  <!-- Arrow -->
  <path d="M155 100 L175 100 M170 95 L175 100 L170 105" stroke="#ffffff" stroke-width="2" fill="none"/>
  <!-- Result hint -->
  <rect x="25" y="165" width="25" height="25" fill="#4a4a6a" rx="3"/>
  <rect x="55" y="165" width="25" height="25" fill="#5a5a7a" rx="3"/>
  <text x="92" y="182" fill="#888" font-size="16">→</text>
  <rect x="110" y="165" width="25" height="25" fill="#6a8a6a" rx="3"/>
  <rect x="140" y="165" width="25" height="25" fill="#7a9a7a" rx="3"/>
  <!-- Label -->
  <text x="100" y="155" text-anchor="middle" fill="#00ff88" font-family="system-ui" font-size="12" font-weight="bold">ControlNet</text>
</svg>
