<svg xmlns="http://www.w3.org/2000/svg" viewBox="0 0 200 200">
  <defs>
    <linearGradient id="ipbg" x1="0%" y1="0%" x2="100%" y2="100%">
      <stop offset="0%" style="stop-color:#1a1a2e"/>
      <stop offset="100%" style="stop-color:#16213e"/>
    </linearGradient>
  </defs>
  <rect width="200" height="200" fill="url(#ipbg)"/>
  <!-- Reference image frame -->
  <rect x="20" y="30" width="70" height="70" fill="#3a5a7a" rx="5"/>
  <text x="55" y="60" text-anchor="middle" fill="#88aacc" font-size="10">REFERENCE</text>
  <!-- Simple face in reference -->
  <circle cx="55" cy="80" r="15" fill="#e8beac"/>
  <circle cx="50" cy="77" r="2" fill="#333"/>
  <circle cx="60" cy="77" r="2" fill="#333"/>
  <path d="M50 85 Q55 88 60 85" stroke="#c4a087" fill="none" stroke-width="1.5"/>
  <!-- Arrow -->
  <path d="M100 65 L120 65 M115 60 L120 65 L115 70" stroke="#9b59b6" stroke-width="2" fill="none"/>
  <!-- Output images -->
  <rect x="130" y="20" width="50" height="50" fill="#4a6a8a" rx="3"/>
  <circle cx="155" cy="40" r="12" fill="#e8beac"/>
  <circle cx="151" cy="38" r="1.5" fill="#333"/>
  <circle cx="159" cy="38" r="1.5" fill="#333"/>

  <rect x="130" y="80" width="50" height="50" fill="#5a7a9a" rx="3"/>
  <circle cx="155" cy="100" r="12" fill="#e8beac"/>
  <circle cx="151" cy="98" r="1.5" fill="#333"/>
  <circle cx="159" cy="98" r="1.5" fill="#333"/>

  <rect x="130" y="140" width="50" height="50" fill="#6a8aaa" rx="3"/>
  <circle cx="155" cy="160" r="12" fill="#e8beac"/>
  <circle cx="151" cy="158" r="1.5" fill="#333"/>
  <circle cx="159" cy="158" r="1.5" fill="#333"/>
  <!-- Connection lines -->
  <path d="M90 65 Q110 45 130 45" stroke="#9b59b6" stroke-width="1" fill="none" stroke-dasharray="3,2"/>
  <path d="M90 65 Q110 65 130 105" stroke="#9b59b6" stroke-width="1" fill="none" stroke-dasharray="3,2"/>
  <path d="M90 65 Q110 85 130 165" stroke="#9b59b6" stroke-width="1" fill="none" stroke-dasharray="3,2"/>
  <!-- Label -->
  <text x="55" y="125" text-anchor="middle" fill="#9b59b6" font-family="system-ui" font-size="9" font-weight="bold">Same Face</text>
  <text x="55" y="138" text-anchor="middle" fill="#9b59b6" font-family="system-ui" font-size="9" font-weight="bold">Different Scenes</text>
  <!-- Title -->
  <text x="100" y="190" text-anchor="middle" fill="#9b59b6" font-family="system-ui" font-size="11" font-weight="bold">IP Adapter</text>
</svg>
