<svg xmlns="http://www.w3.org/2000/svg" viewBox="0 0 200 200">
  <defs>
    <linearGradient id="videobg" x1="0%" y1="0%" x2="100%" y2="100%">
      <stop offset="0%" style="stop-color:#0f0f23"/>
      <stop offset="100%" style="stop-color:#1a1a3e"/>
    </linearGradient>
  </defs>
  <rect width="200" height="200" fill="url(#videobg)"/>
  <!-- Film strip holes -->
  <rect x="10" y="20" width="15" height="10" rx="2" fill="#2a2a4a"/>
  <rect x="10" y="45" width="15" height="10" rx="2" fill="#2a2a4a"/>
  <rect x="10" y="70" width="15" height="10" rx="2" fill="#2a2a4a"/>
  <rect x="10" y="95" width="15" height="10" rx="2" fill="#2a2a4a"/>
  <rect x="10" y="120" width="15" height="10" rx="2" fill="#2a2a4a"/>
  <rect x="10" y="145" width="15" height="10" rx="2" fill="#2a2a4a"/>
  <rect x="175" y="20" width="15" height="10" rx="2" fill="#2a2a4a"/>
  <rect x="175" y="45" width="15" height="10" rx="2" fill="#2a2a4a"/>
  <rect x="175" y="70" width="15" height="10" rx="2" fill="#2a2a4a"/>
  <rect x="175" y="95" width="15" height="10" rx="2" fill="#2a2a4a"/>
  <rect x="175" y="120" width="15" height="10" rx="2" fill="#2a2a4a"/>
  <rect x="175" y="145" width="15" height="10" rx="2" fill="#2a2a4a"/>
  <!-- Frames -->
  <rect x="35" y="25" width="55" height="40" fill="#3a3a5a" rx="3"/>
  <rect x="110" y="25" width="55" height="40" fill="#4a4a6a" rx="3"/>
  <rect x="35" y="80" width="55" height="40" fill="#5a5a7a" rx="3"/>
  <rect x="110" y="80" width="55" height="40" fill="#6a6a8a" rx="3"/>
  <rect x="35" y="135" width="55" height="40" fill="#7a7a9a" rx="3"/>
  <rect x="110" y="135" width="55" height="40" fill="#8a8aaa" rx="3"/>
  <!-- Play button overlay -->
  <circle cx="100" cy="100" r="25" fill="rgba(255,255,255,0.2)"/>
  <polygon points="92,88 92,112 115,100" fill="#fff"/>
  <!-- Label -->
  <text x="100" y="190" text-anchor="middle" fill="#ffffff" font-family="system-ui" font-size="12" opacity="0.8">Animation</text>
</svg>
